<?xml version="1.0" encoding="UTF-8" standalone="no"?>
<!-- Created with Inkscape (http://www.inkscape.org/) -->

<svg
   xmlns:dc="http://purl.org/dc/elements/1.1/"
   xmlns:cc="http://creativecommons.org/ns#"
   xmlns:rdf="http://www.w3.org/1999/02/22-rdf-syntax-ns#"
   xmlns:svg="http://www.w3.org/2000/svg"
   xmlns="http://www.w3.org/2000/svg"
   xmlns:sodipodi="http://sodipodi.sourceforge.net/DTD/sodipodi-0.dtd"
   xmlns:inkscape="http://www.inkscape.org/namespaces/inkscape"
   width="207.71001"
   height="315.8363"
   id="svg2"
   version="1.1"
   inkscape:version="0.48.1 r9760"
   sodipodi:docname="dekker.svg">
  <defs
     id="defs4">
    <marker
       inkscape:stockid="Arrow1Send"
       orient="auto"
       refY="0"
       refX="0"
       id="Arrow1Send"
       style="overflow:visible">
      <path
         id="path4210"
         d="M 0,0 5,-5 -12.5,0 5,5 0,0 z"
         style="fill-rule:evenodd;stroke:#000000;stroke-width:1pt;marker-start:none"
         transform="matrix(-0.2,0,0,-0.2,-1.2,0)"
         inkscape:connector-curvature="0" />
    </marker>
    <marker
       inkscape:stockid="Arrow1Mend"
       orient="auto"
       refY="0"
       refX="0"
       id="Arrow1Mend"
       style="overflow:visible">
      <path
         id="path4204"
         d="M 0,0 5,-5 -12.5,0 5,5 0,0 z"
         style="fill-rule:evenodd;stroke:#000000;stroke-width:1pt;marker-start:none"
         transform="matrix(-0.4,0,0,-0.4,-4,0)"
         inkscape:connector-curvature="0" />
    </marker>
    <marker
       inkscape:stockid="Arrow1Mend"
       orient="auto"
       refY="0"
       refX="0"
       id="Arrow1Mend-9"
       style="overflow:visible">
      <path
         inkscape:connector-curvature="0"
         id="path4204-7"
         d="M 0,0 5,-5 -12.5,0 5,5 0,0 z"
         style="fill-rule:evenodd;stroke:#000000;stroke-width:1pt;marker-start:none"
         transform="matrix(-0.4,0,0,-0.4,-4,0)" />
    </marker>
    <marker
       inkscape:stockid="Arrow1Mend"
       orient="auto"
       refY="0"
       refX="0"
       id="marker5057"
       style="overflow:visible">
      <path
         inkscape:connector-curvature="0"
         id="path5059"
         d="M 0,0 5,-5 -12.5,0 5,5 0,0 z"
         style="fill-rule:evenodd;stroke:#000000;stroke-width:1pt;marker-start:none"
         transform="matrix(-0.4,0,0,-0.4,-4,0)" />
    </marker>
    <marker
       inkscape:stockid="Arrow1Mend"
       orient="auto"
       refY="0"
       refX="0"
       id="Arrow1Mend-1"
       style="overflow:visible">
      <path
         inkscape:connector-curvature="0"
         id="path4204-70"
         d="M 0,0 5,-5 -12.5,0 5,5 0,0 z"
         style="fill-rule:evenodd;stroke:#000000;stroke-width:1pt;marker-start:none"
         transform="matrix(-0.4,0,0,-0.4,-4,0)" />
    </marker>
    <marker
       inkscape:stockid="Arrow1Mend"
       orient="auto"
       refY="0"
       refX="0"
       id="marker5157"
       style="overflow:visible">
      <path
         inkscape:connector-curvature="0"
         id="path5159"
         d="M 0,0 5,-5 -12.5,0 5,5 0,0 z"
         style="fill-rule:evenodd;stroke:#000000;stroke-width:1pt;marker-start:none"
         transform="matrix(-0.4,0,0,-0.4,-4,0)" />
    </marker>
    <marker
       inkscape:stockid="Arrow1Mend"
       orient="auto"
       refY="0"
       refX="0"
       id="marker5161"
       style="overflow:visible">
      <path
         inkscape:connector-curvature="0"
         id="path5163"
         d="M 0,0 5,-5 -12.5,0 5,5 0,0 z"
         style="fill-rule:evenodd;stroke:#000000;stroke-width:1pt;marker-start:none"
         transform="matrix(-0.4,0,0,-0.4,-4,0)" />
    </marker>
    <marker
       inkscape:stockid="Arrow1Mend"
       orient="auto"
       refY="0"
       refX="0"
       id="Arrow1Mend-4"
       style="overflow:visible">
      <path
         inkscape:connector-curvature="0"
         id="path4204-1"
         d="M 0,0 5,-5 -12.5,0 5,5 0,0 z"
         style="fill-rule:evenodd;stroke:#000000;stroke-width:1pt;marker-start:none"
         transform="matrix(-0.4,0,0,-0.4,-4,0)" />
    </marker>
    <marker
       inkscape:stockid="Arrow1Mend"
       orient="auto"
       refY="0"
       refX="0"
       id="marker5212"
       style="overflow:visible">
      <path
         inkscape:connector-curvature="0"
         id="path5214"
         d="M 0,0 5,-5 -12.5,0 5,5 0,0 z"
         style="fill-rule:evenodd;stroke:#000000;stroke-width:1pt;marker-start:none"
         transform="matrix(-0.4,0,0,-0.4,-4,0)" />
    </marker>
    <marker
       inkscape:stockid="Arrow1Mend"
       orient="auto"
       refY="0"
       refX="0"
       id="Arrow1Mend-5"
       style="overflow:visible">
      <path
         inkscape:connector-curvature="0"
         id="path4204-4"
         d="M 0,0 5,-5 -12.5,0 5,5 0,0 z"
         style="fill-rule:evenodd;stroke:#000000;stroke-width:1pt;marker-start:none"
         transform="matrix(-0.4,0,0,-0.4,-4,0)" />
    </marker>
    <marker
       inkscape:stockid="Arrow1Mend"
       orient="auto"
       refY="0"
       refX="0"
       id="marker5256"
       style="overflow:visible">
      <path
         inkscape:connector-curvature="0"
         id="path5258"
         d="M 0,0 5,-5 -12.5,0 5,5 0,0 z"
         style="fill-rule:evenodd;stroke:#000000;stroke-width:1pt;marker-start:none"
         transform="matrix(-0.4,0,0,-0.4,-4,0)" />
    </marker>
    <marker
       inkscape:stockid="Arrow1Mend"
       orient="auto"
       refY="0"
       refX="0"
       id="Arrow1Mend-8"
       style="overflow:visible">
      <path
         inkscape:connector-curvature="0"
         id="path4204-5"
         d="M 0,0 5,-5 -12.5,0 5,5 0,0 z"
         style="fill-rule:evenodd;stroke:#000000;stroke-width:1pt;marker-start:none"
         transform="matrix(-0.4,0,0,-0.4,-4,0)" />
    </marker>
    <marker
       inkscape:stockid="Arrow1Mend"
       orient="auto"
       refY="0"
       refX="0"
       id="marker5361"
       style="overflow:visible">
      <path
         inkscape:connector-curvature="0"
         id="path5363"
         d="M 0,0 5,-5 -12.5,0 5,5 0,0 z"
         style="fill-rule:evenodd;stroke:#000000;stroke-width:1pt;marker-start:none"
         transform="matrix(-0.4,0,0,-0.4,-4,0)" />
    </marker>
    <marker
       inkscape:stockid="Arrow1Mend"
       orient="auto"
       refY="0"
       refX="0"
       id="marker5365"
       style="overflow:visible">
      <path
         inkscape:connector-curvature="0"
         id="path5367"
         d="M 0,0 5,-5 -12.5,0 5,5 0,0 z"
         style="fill-rule:evenodd;stroke:#000000;stroke-width:1pt;marker-start:none"
         transform="matrix(-0.4,0,0,-0.4,-4,0)" />
    </marker>
    <marker
       inkscape:stockid="Arrow1Mend"
       orient="auto"
       refY="0"
       refX="0"
       id="Arrow1Mend-46"
       style="overflow:visible">
      <path
         inkscape:connector-curvature="0"
         id="path4204-3"
         d="M 0,0 5,-5 -12.5,0 5,5 0,0 z"
         style="fill-rule:evenodd;stroke:#000000;stroke-width:1pt;marker-start:none"
         transform="matrix(-0.4,0,0,-0.4,-4,0)" />
    </marker>
    <marker
       inkscape:stockid="Arrow1Mend"
       orient="auto"
       refY="0"
       refX="0"
       id="marker5361-6"
       style="overflow:visible">
      <path
         inkscape:connector-curvature="0"
         id="path5363-3"
         d="M 0,0 5,-5 -12.5,0 5,5 0,0 z"
         style="fill-rule:evenodd;stroke:#000000;stroke-width:1pt;marker-start:none"
         transform="matrix(-0.4,0,0,-0.4,-4,0)" />
    </marker>
    <marker
       inkscape:stockid="Arrow1Mend"
       orient="auto"
       refY="0"
       refX="0"
       id="marker5365-3"
       style="overflow:visible">
      <path
         inkscape:connector-curvature="0"
         id="path5367-4"
         d="M 0,0 5,-5 -12.5,0 5,5 0,0 z"
         style="fill-rule:evenodd;stroke:#000000;stroke-width:1pt;marker-start:none"
         transform="matrix(-0.4,0,0,-0.4,-4,0)" />
    </marker>
    <marker
       inkscape:stockid="Arrow1Mend"
       orient="auto"
       refY="0"
       refX="0"
       id="Arrow1Mend-15"
       style="overflow:visible">
      <path
         inkscape:connector-curvature="0"
         id="path4204-0"
         d="M 0,0 5,-5 -12.5,0 5,5 0,0 z"
         style="fill-rule:evenodd;stroke:#000000;stroke-width:1pt;marker-start:none"
         transform="matrix(-0.4,0,0,-0.4,-4,0)" />
    </marker>
    <marker
       inkscape:stockid="Arrow1Mend"
       orient="auto"
       refY="0"
       refX="0"
       id="marker5453"
       style="overflow:visible">
      <path
         inkscape:connector-curvature="0"
         id="path5455"
         d="M 0,0 5,-5 -12.5,0 5,5 0,0 z"
         style="fill-rule:evenodd;stroke:#000000;stroke-width:1pt;marker-start:none"
         transform="matrix(-0.4,0,0,-0.4,-4,0)" />
    </marker>
    <marker
       inkscape:stockid="Arrow1Mend"
       orient="auto"
       refY="0"
       refX="0"
       id="Arrow1Mend-12"
       style="overflow:visible">
      <path
         inkscape:connector-curvature="0"
         id="path4204-2"
         d="M 0,0 5,-5 -12.5,0 5,5 0,0 z"
         style="fill-rule:evenodd;stroke:#000000;stroke-width:1pt;marker-start:none"
         transform="matrix(-0.4,0,0,-0.4,-4,0)" />
    </marker>
    <marker
       inkscape:stockid="Arrow1Mend"
       orient="auto"
       refY="0"
       refX="0"
       id="marker5503"
       style="overflow:visible">
      <path
         inkscape:connector-curvature="0"
         id="path5505"
         d="M 0,0 5,-5 -12.5,0 5,5 0,0 z"
         style="fill-rule:evenodd;stroke:#000000;stroke-width:1pt;marker-start:none"
         transform="matrix(-0.4,0,0,-0.4,-4,0)" />
    </marker>
    <marker
       inkscape:stockid="Arrow1Mend"
       orient="auto"
       refY="0"
       refX="0"
       id="marker5507"
       style="overflow:visible">
      <path
         inkscape:connector-curvature="0"
         id="path5509"
         d="M 0,0 5,-5 -12.5,0 5,5 0,0 z"
         style="fill-rule:evenodd;stroke:#000000;stroke-width:1pt;marker-start:none"
         transform="matrix(-0.4,0,0,-0.4,-4,0)" />
    </marker>
    <marker
       inkscape:stockid="Arrow1Mend"
       orient="auto"
       refY="0"
       refX="0"
       id="Arrow1Mend-42"
       style="overflow:visible">
      <path
         inkscape:connector-curvature="0"
         id="path4204-52"
         d="M 0,0 5,-5 -12.5,0 5,5 0,0 z"
         style="fill-rule:evenodd;stroke:#000000;stroke-width:1pt;marker-start:none"
         transform="matrix(-0.4,0,0,-0.4,-4,0)" />
    </marker>
    <marker
       inkscape:stockid="Arrow1Mend"
       orient="auto"
       refY="0"
       refX="0"
       id="marker5558"
       style="overflow:visible">
      <path
         inkscape:connector-curvature="0"
         id="path5560"
         d="M 0,0 5,-5 -12.5,0 5,5 0,0 z"
         style="fill-rule:evenodd;stroke:#000000;stroke-width:1pt;marker-start:none"
         transform="matrix(-0.4,0,0,-0.4,-4,0)" />
    </marker>
    <marker
       inkscape:stockid="Arrow1Mend"
       orient="auto"
       refY="0"
       refX="0"
       id="Arrow1Mend-7"
       style="overflow:visible">
      <path
         inkscape:connector-curvature="0"
         id="path4204-56"
         d="M 0,0 5,-5 -12.5,0 5,5 0,0 z"
         style="fill-rule:evenodd;stroke:#000000;stroke-width:1pt;marker-start:none"
         transform="matrix(-0.4,0,0,-0.4,-4,0)" />
    </marker>
    <marker
       inkscape:stockid="Arrow1Mend"
       orient="auto"
       refY="0"
       refX="0"
       id="marker5608"
       style="overflow:visible">
      <path
         inkscape:connector-curvature="0"
         id="path5610"
         d="M 0,0 5,-5 -12.5,0 5,5 0,0 z"
         style="fill-rule:evenodd;stroke:#000000;stroke-width:1pt;marker-start:none"
         transform="matrix(-0.4,0,0,-0.4,-4,0)" />
    </marker>
  </defs>
  <sodipodi:namedview
     id="base"
     pagecolor="#ffffff"
     bordercolor="#666666"
     borderopacity="1.0"
     inkscape:pageopacity="0.0"
     inkscape:pageshadow="2"
     inkscape:zoom="1"
     inkscape:cx="169.90356"
     inkscape:cy="139.95175"
     inkscape:document-units="px"
     inkscape:current-layer="layer1"
     showgrid="false"
     inkscape:window-width="1280"
     inkscape:window-height="731"
     inkscape:window-x="0"
     inkscape:window-y="25"
     inkscape:window-maximized="1"
     fit-margin-top="0"
     fit-margin-left="0"
     fit-margin-right="0"
     fit-margin-bottom="0" />
  <metadata
     id="metadata7">
    <rdf:RDF>
      <cc:Work
         rdf:about="">
        <dc:format>image/svg+xml</dc:format>
        <dc:type
           rdf:resource="http://purl.org/dc/dcmitype/StillImage" />
        <dc:title></dc:title>
      </cc:Work>
    </rdf:RDF>
  </metadata>
  <g
     inkscape:label="Layer 1"
     inkscape:groupmode="layer"
     id="layer1"
     transform="translate(-277.078,-80.628542)">
    <text
       xml:space="preserve"
       style="font-size:10px;font-style:normal;font-variant:normal;font-weight:normal;font-stretch:normal;line-height:125%;letter-spacing:0px;word-spacing:0px;fill:#000000;fill-opacity:1;stroke:none;font-family:FreeSerif;-inkscape-font-specification:FreeSerif"
       x="383.02234"
       y="87.388542"
       id="text2985"
       sodipodi:linespacing="125%"><tspan
         sodipodi:role="line"
         id="tspan2987"
         x="383.02234"
         y="87.388542">P0</tspan></text>
    <text
       xml:space="preserve"
       style="font-size:10px;font-style:normal;font-variant:normal;font-weight:normal;font-stretch:normal;line-height:125%;letter-spacing:0px;word-spacing:0px;fill:#000000;fill-opacity:1;stroke:none;font-family:FreeSerif;-inkscape-font-specification:FreeSerif"
       x="384.20312"
       y="122.56374"
       id="text2991"
       sodipodi:linespacing="125%"><tspan
         sodipodi:role="line"
         id="tspan2993"
         x="384.20312"
         y="122.56374">P1</tspan></text>
    <text
       xml:space="preserve"
       style="font-size:10px;font-style:normal;font-variant:normal;font-weight:normal;font-stretch:normal;line-height:125%;letter-spacing:0px;word-spacing:0px;fill:#000000;fill-opacity:1;stroke:none;font-family:FreeSerif;-inkscape-font-specification:FreeSerif"
       x="326.90872"
       y="186.23253"
       id="text2995"
       sodipodi:linespacing="125%"><tspan
         sodipodi:role="line"
         id="tspan2997"
         x="326.90872"
         y="186.23253">P2</tspan></text>
    <path
       style="fill:none;stroke:#000000;stroke-width:1px;stroke-linecap:butt;stroke-linejoin:miter;stroke-opacity:1;marker-start:none;marker-mid:none;marker-end:url(#Arrow1Mend)"
       d="m 417.71221,186.25953 0,25"
       id="path2989-4"
       inkscape:connector-curvature="0" />
    <path
       style="fill:none;stroke:#000000;stroke-width:1px;stroke-linecap:butt;stroke-linejoin:miter;stroke-opacity:1;marker-start:none;marker-mid:none;marker-end:url(#Arrow1Mend)"
       d="m 417.71221,221.00963 0,25"
       id="path2989-9"
       inkscape:connector-curvature="0" />
    <path
       sodipodi:type="arc"
       id="path5006"
       sodipodi:cx="498.19461"
       sodipodi:cy="109.51105"
       sodipodi:rx="1.5783633"
       sodipodi:ry="1.6414979"
       d="m 499.77297,109.51105 c 0,0.90657 -0.70665,1.6415 -1.57836,1.6415 -0.87171,0 -1.57836,-0.73493 -1.57836,-1.6415 0,-0.90658 0.70665,-1.6415 1.57836,-1.6415 0.87171,0 1.57836,0.73492 1.57836,1.6415 z"
       transform="matrix(0.95035154,0,0,0.91379955,-55.747805,116.74939)" />
    <path
       sodipodi:nodetypes="cc"
       style="fill:none;stroke:#000000;stroke-width:1px;stroke-linecap:butt;stroke-linejoin:miter;stroke-opacity:1;marker-start:none;marker-mid:none;marker-end:url(#Arrow1Mend)"
       d="m 417.71221,255.76266 c 4.94975,132.44166 110.73892,-165.499999 -34,-165.499999"
       id="path2989-9-9"
       inkscape:connector-curvature="0" />
    <path
       sodipodi:type="arc"
       id="path5006-3"
       sodipodi:cx="498.19461"
       sodipodi:cy="109.51105"
       sodipodi:rx="1.5783633"
       sodipodi:ry="1.6414979"
       d="m 499.77297,109.51105 c 0,0.90657 -0.70665,1.6415 -1.57836,1.6415 -0.87171,0 -1.57836,-0.73493 -1.57836,-1.6415 0,-0.90658 0.70665,-1.6415 1.57836,-1.6415 0.87171,0 1.57836,0.73492 1.57836,1.6415 z"
       transform="matrix(0.95035154,0,0,0.91379955,-55.747812,151.50242)" />
    <text
       sodipodi:linespacing="125%"
       id="text5640"
       y="280.90869"
       x="383.25186"
       style="font-size:10px;font-style:normal;font-variant:normal;font-weight:normal;font-stretch:normal;line-height:125%;letter-spacing:0px;word-spacing:0px;fill:#000000;fill-opacity:1;stroke:none;font-family:FreeSerif;-inkscape-font-specification:FreeSerif"
       xml:space="preserve"><tspan
         y="280.90869"
         x="383.25186"
         id="tspan5642"
         sodipodi:role="line">P3</tspan></text>
    <text
       sodipodi:linespacing="125%"
       id="text5644"
       y="104.27222"
       x="383.29105"
       style="font-size:8px;font-style:normal;font-variant:normal;font-weight:normal;font-stretch:normal;line-height:125%;letter-spacing:0px;word-spacing:0px;fill:#000000;fill-opacity:1;stroke:none;font-family:FreeSerif;-inkscape-font-specification:FreeSerif"
       xml:space="preserve"><tspan
         y="104.27222"
         x="383.29105"
         id="tspan5646"
         sodipodi:role="line">set i</tspan></text>
    <text
       sodipodi:linespacing="125%"
       id="text5648"
       y="138.19325"
       x="383.25186"
       style="font-size:8px;font-style:normal;font-variant:normal;font-weight:normal;font-stretch:normal;line-height:125%;letter-spacing:0px;word-spacing:0px;fill:#000000;fill-opacity:1;stroke:none;font-family:FreeSerif;-inkscape-font-specification:FreeSerif"
       xml:space="preserve"><tspan
         y="138.19325"
         x="383.25186"
         id="tspan5650"
         sodipodi:role="line">get j</tspan></text>
    <path
       style="fill:none;stroke:#000000;stroke-width:1px;stroke-linecap:butt;stroke-linejoin:miter;stroke-opacity:1;marker-start:none;marker-mid:none;marker-end:url(#Arrow1Mend)"
       d="m 378.95117,88.705219 0,25.000001"
       id="path2989-9-8-5"
       inkscape:connector-curvature="0" />
    <path
       sodipodi:type="arc"
       id="path5006-5-5"
       sodipodi:cx="498.19461"
       sodipodi:cy="109.51105"
       sodipodi:rx="1.5783633"
       sodipodi:ry="1.6414979"
       d="m 499.77297,109.51105 c 0,0.90657 -0.70665,1.6415 -1.57836,1.6415 -0.87171,0 -1.57836,-0.73493 -1.57836,-1.6415 0,-0.90658 0.70665,-1.6415 1.57836,-1.6415 0.87171,0 1.57836,0.73492 1.57836,1.6415 z"
       transform="matrix(0.95035154,0,0,0.91379955,-94.508843,-15.555022)" />
    <path
       style="fill:none;stroke:#000000;stroke-width:1px;stroke-linecap:butt;stroke-linejoin:miter;stroke-opacity:1;marker-start:none;marker-mid:none;marker-end:url(#Arrow1Mend)"
       d="m 378.95117,123.45825 0,25"
       id="path2989-9-9-3-4"
       inkscape:connector-curvature="0" />
    <path
       sodipodi:type="arc"
       id="path5006-3-9-9"
       sodipodi:cx="498.19461"
       sodipodi:cy="109.51105"
       sodipodi:rx="1.5783633"
       sodipodi:ry="1.6414979"
       d="m 499.77297,109.51105 c 0,0.90657 -0.70665,1.6415 -1.57836,1.6415 -0.87171,0 -1.57836,-0.73493 -1.57836,-1.6415 0,-0.90658 0.70665,-1.6415 1.57836,-1.6415 0.87171,0 1.57836,0.73492 1.57836,1.6415 z"
       transform="matrix(0.95035154,0,0,0.91379955,-94.50885,19.198009)" />
    <path
       style="fill:none;stroke:#000000;stroke-width:1px;stroke-linecap:butt;stroke-linejoin:miter;stroke-opacity:1;marker-start:none;marker-mid:none;marker-end:url(#Arrow1Mend)"
       d="m 376.18537,155.3518 -32.82995,24.24366"
       id="path2999"
       inkscape:connector-curvature="0" />
    <path
       style="fill:none;stroke:#000000;stroke-width:1px;stroke-linecap:butt;stroke-linejoin:miter;stroke-opacity:1;marker-start:none;marker-mid:none;marker-end:url(#Arrow1Mend)"
       d="m 381.59021,155.3518 32.82995,24.24366"
       id="path2999-6"
       inkscape:connector-curvature="0" />
    <path
       transform="matrix(0.95035154,0,0,0.91379955,-55.883133,82.580029)"
       d="m 499.77297,109.51105 c 0,0.90657 -0.70665,1.6415 -1.57836,1.6415 -0.87171,0 -1.57836,-0.73493 -1.57836,-1.6415 0,-0.90658 0.70665,-1.6415 1.57836,-1.6415 0.87171,0 1.57836,0.73492 1.57836,1.6415 z"
       sodipodi:ry="1.6414979"
       sodipodi:rx="1.5783633"
       sodipodi:cy="109.51105"
       sodipodi:cx="498.19461"
       id="path5006-6"
       sodipodi:type="arc" />
    <path
       transform="matrix(0.95035154,0,0,0.91379955,-94.289522,52.91604)"
       d="m 499.77297,109.51105 c 0,0.90657 -0.70665,1.6415 -1.57836,1.6415 -0.87171,0 -1.57836,-0.73493 -1.57836,-1.6415 0,-0.90658 0.70665,-1.6415 1.57836,-1.6415 0.87171,0 1.57836,0.73492 1.57836,1.6415 z"
       sodipodi:ry="1.6414979"
       sodipodi:rx="1.5783633"
       sodipodi:cy="109.51105"
       sodipodi:cx="498.19461"
       id="path5006-5-5-8"
       sodipodi:type="arc" />
    <path
       transform="matrix(0.95035154,0,0,0.91379955,-133.13455,82.580029)"
       d="m 499.77297,109.51105 c 0,0.90657 -0.70665,1.6415 -1.57836,1.6415 -0.87171,0 -1.57836,-0.73493 -1.57836,-1.6415 0,-0.90658 0.70665,-1.6415 1.57836,-1.6415 0.87171,0 1.57836,0.73492 1.57836,1.6415 z"
       sodipodi:ry="1.6414979"
       sodipodi:rx="1.5783633"
       sodipodi:cy="109.51105"
       sodipodi:cx="498.19461"
       id="path5006-6-3"
       sodipodi:type="arc" />
    <path
       style="fill:none;stroke:#000000;stroke-width:1px;stroke-linecap:butt;stroke-linejoin:miter;stroke-opacity:1;marker-start:none;marker-mid:none;marker-end:url(#Arrow1Mend)"
       d="m 340.11836,186.25953 0,25"
       id="path2989-4-3"
       inkscape:connector-curvature="0" />
    <path
       style="fill:none;stroke:#000000;stroke-width:1px;stroke-linecap:butt;stroke-linejoin:miter;stroke-opacity:1;marker-start:none;marker-mid:none;marker-end:url(#Arrow1Mend)"
       d="m 339.12033,219.27868 c -60.00238,51.75851 -79.17099,-98.0858 35.0523,-98.0858"
       id="path2999-5"
       inkscape:connector-curvature="0"
       sodipodi:nodetypes="cc" />
    <path
       style="fill:none;stroke:#000000;stroke-width:1px;stroke-linecap:butt;stroke-linejoin:miter;stroke-opacity:1;marker-start:none;marker-mid:none;marker-end:url(#Arrow1Mend)"
       d="m 342.7574,218.3948 32.82995,24.24366"
       id="path2999-6-6"
       inkscape:connector-curvature="0" />
    <path
       transform="matrix(0.95035154,0,0,0.91379955,-94.715947,145.62303)"
       d="m 499.77297,109.51105 c 0,0.90657 -0.70665,1.6415 -1.57836,1.6415 -0.87171,0 -1.57836,-0.73493 -1.57836,-1.6415 0,-0.90658 0.70665,-1.6415 1.57836,-1.6415 0.87171,0 1.57836,0.73492 1.57836,1.6415 z"
       sodipodi:ry="1.6414979"
       sodipodi:rx="1.5783633"
       sodipodi:cy="109.51105"
       sodipodi:cx="498.19461"
       id="path5006-6-5"
       sodipodi:type="arc" />
    <path
       transform="matrix(0.95035154,0,0,0.91379955,-133.12234,115.95905)"
       d="m 499.77297,109.51105 c 0,0.90657 -0.70665,1.6415 -1.57836,1.6415 -0.87171,0 -1.57836,-0.73493 -1.57836,-1.6415 0,-0.90658 0.70665,-1.6415 1.57836,-1.6415 0.87171,0 1.57836,0.73492 1.57836,1.6415 z"
       sodipodi:ry="1.6414979"
       sodipodi:rx="1.5783633"
       sodipodi:cy="109.51105"
       sodipodi:cx="498.19461"
       id="path5006-5-5-8-9"
       sodipodi:type="arc" />
    <path
       style="fill:none;stroke:#000000;stroke-width:1px;stroke-linecap:butt;stroke-linejoin:miter;stroke-opacity:1;marker-start:none;marker-mid:none;marker-end:url(#Arrow1Mend)"
       d="m 379,248.73562 0,25"
       id="path2989-4-2-9"
       inkscape:connector-curvature="0" />
    <path
       style="fill:none;stroke:#000000;stroke-width:1px;stroke-linecap:butt;stroke-linejoin:miter;stroke-opacity:1;marker-start:none;marker-mid:none;marker-end:url(#Arrow1Mend)"
       d="m 379,283.48572 0,25"
       id="path2989-9-2-1"
       inkscape:connector-curvature="0" />
    <path
       sodipodi:type="arc"
       id="path5006-7-0"
       sodipodi:cx="498.19461"
       sodipodi:cy="109.51105"
       sodipodi:rx="1.5783633"
       sodipodi:ry="1.6414979"
       d="m 499.77297,109.51105 c 0,0.90657 -0.70665,1.6415 -1.57836,1.6415 -0.87171,0 -1.57836,-0.73493 -1.57836,-1.6415 0,-0.90658 0.70665,-1.6415 1.57836,-1.6415 0.87171,0 1.57836,0.73492 1.57836,1.6415 z"
       transform="matrix(0.95035154,0,0,0.91379955,-94.460013,179.22548)" />
    <path
       style="fill:none;stroke:#000000;stroke-width:1px;stroke-linecap:butt;stroke-linejoin:miter;stroke-opacity:1;marker-start:none;marker-mid:none;marker-end:url(#Arrow1Mend)"
       d="m 376.2342,317.23167 c -35.87637,27.19697 -37.8329,-14.56865 -2.07995,-35.00634"
       id="path2999-5-3"
       inkscape:connector-curvature="0"
       sodipodi:nodetypes="cc" />
    <path
       style="fill:none;stroke:#000000;stroke-width:1px;stroke-linecap:butt;stroke-linejoin:miter;stroke-opacity:1;marker-start:none;marker-mid:none;marker-end:url(#Arrow1Mend)"
       d="m 381.63904,317.23167 32.82995,24.24366"
       id="path2999-6-6-8"
       inkscape:connector-curvature="0" />
    <path
       transform="matrix(0.95035154,0,0,0.91379955,-55.834307,244.4599)"
       d="m 499.77297,109.51105 c 0,0.90657 -0.70665,1.6415 -1.57836,1.6415 -0.87171,0 -1.57836,-0.73493 -1.57836,-1.6415 0,-0.90658 0.70665,-1.6415 1.57836,-1.6415 0.87171,0 1.57836,0.73492 1.57836,1.6415 z"
       sodipodi:ry="1.6414979"
       sodipodi:rx="1.5783633"
       sodipodi:cy="109.51105"
       sodipodi:cx="498.19461"
       id="path5006-6-5-6"
       sodipodi:type="arc" />
    <path
       transform="matrix(0.95035154,0,0,0.91379955,-94.240696,214.79591)"
       d="m 499.77297,109.51105 c 0,0.90657 -0.70665,1.6415 -1.57836,1.6415 -0.87171,0 -1.57836,-0.73493 -1.57836,-1.6415 0,-0.90658 0.70665,-1.6415 1.57836,-1.6415 0.87171,0 1.57836,0.73492 1.57836,1.6415 z"
       sodipodi:ry="1.6414979"
       sodipodi:rx="1.5783633"
       sodipodi:cy="109.51105"
       sodipodi:cx="498.19461"
       id="path5006-5-5-8-9-0"
       sodipodi:type="arc" />
    <path
       sodipodi:nodetypes="cc"
       style="fill:none;stroke:#000000;stroke-width:1px;stroke-linecap:butt;stroke-linejoin:miter;stroke-opacity:1;marker-start:none;marker-mid:none;marker-end:url(#Arrow1Mend)"
       d="m 417.60905,348.73258 c 0,184.48998 -284.07785,-231 -43,-231"
       id="path2989-9-8-5-4"
       inkscape:connector-curvature="0" />
    <text
       xml:space="preserve"
       style="font-size:8px;font-style:normal;font-variant:normal;font-weight:normal;font-stretch:normal;line-height:125%;letter-spacing:0px;word-spacing:0px;fill:#000000;fill-opacity:1;stroke:none;font-family:FreeSerif;-inkscape-font-specification:FreeSerif"
       x="340.82547"
       y="165.50565"
       id="text5701"
       sodipodi:linespacing="125%"><tspan
         sodipodi:role="line"
         id="tspan5703"
         x="340.82547"
         y="165.50565">true j</tspan></text>
    <text
       xml:space="preserve"
       style="font-size:8px;font-style:normal;font-variant:normal;font-weight:normal;font-stretch:normal;line-height:125%;letter-spacing:0px;word-spacing:0px;fill:#000000;fill-opacity:1;stroke:none;font-family:FreeSerif;-inkscape-font-specification:FreeSerif"
       x="401.9902"
       y="165.50565"
       id="text5705"
       sodipodi:linespacing="125%"><tspan
         sodipodi:role="line"
         id="tspan5707"
         x="401.9902"
         y="165.50565">false j</tspan></text>
    <text
       xml:space="preserve"
       style="font-size:8px;font-style:normal;font-variant:normal;font-weight:normal;font-stretch:normal;line-height:125%;letter-spacing:0px;word-spacing:0px;fill:#000000;fill-opacity:1;stroke:none;font-family:FreeSerif;-inkscape-font-specification:FreeSerif"
       x="423.2034"
       y="201.82652"
       id="text5709"
       sodipodi:linespacing="125%"><tspan
         sodipodi:role="line"
         id="tspan5711"
         x="423.2034"
         y="201.82652">exit i</tspan></text>
    <text
       xml:space="preserve"
       style="font-size:8px;font-style:normal;font-variant:normal;font-weight:normal;font-stretch:normal;line-height:125%;letter-spacing:0px;word-spacing:0px;fill:#000000;fill-opacity:1;stroke:none;font-family:FreeSerif;-inkscape-font-specification:FreeSerif"
       x="423.33139"
       y="236.57663"
       id="text5713"
       sodipodi:linespacing="125%"><tspan
         sodipodi:role="line"
         id="tspan5715"
         x="423.33139"
         y="236.57663">unset k</tspan></text>
    <text
       xml:space="preserve"
       style="font-size:8px;font-style:normal;font-variant:normal;font-weight:normal;font-stretch:normal;line-height:125%;letter-spacing:0px;word-spacing:0px;fill:#000000;fill-opacity:1;stroke:none;font-family:FreeSerif;-inkscape-font-specification:FreeSerif"
       x="464.32651"
       y="191.79759"
       id="text5717"
       sodipodi:linespacing="125%"><tspan
         sodipodi:role="line"
         id="tspan5719"
         x="464.32651"
         y="191.79759">unset i</tspan></text>
    <text
       xml:space="preserve"
       style="font-size:8px;font-style:normal;font-variant:normal;font-weight:normal;font-stretch:normal;line-height:125%;letter-spacing:0px;word-spacing:0px;fill:#000000;fill-opacity:1;stroke:none;font-family:FreeSerif;-inkscape-font-specification:FreeSerif"
       x="344.36099"
       y="196.76299"
       id="text5721"
       sodipodi:linespacing="125%"><tspan
         sodipodi:role="line"
         id="tspan5723"
         x="344.36099"
         y="196.76299">get k</tspan></text>
    <text
       xml:space="preserve"
       style="font-size:8px;font-style:normal;font-variant:normal;font-weight:normal;font-stretch:normal;line-height:125%;letter-spacing:0px;word-spacing:0px;fill:#000000;fill-opacity:1;stroke:none;font-family:FreeSerif;-inkscape-font-specification:FreeSerif"
       x="305.84207"
       y="239.36409"
       id="text5725"
       sodipodi:linespacing="125%"><tspan
         sodipodi:role="line"
         id="tspan5727"
         x="305.84207"
         y="239.36409">false k</tspan></text>
    <text
       xml:space="preserve"
       style="font-size:8px;font-style:normal;font-variant:normal;font-weight:normal;font-stretch:normal;line-height:125%;letter-spacing:0px;word-spacing:0px;fill:#000000;fill-opacity:1;stroke:none;font-family:FreeSerif;-inkscape-font-specification:FreeSerif"
       x="362.39221"
       y="229.28989"
       id="text5729"
       sodipodi:linespacing="125%"><tspan
         sodipodi:role="line"
         id="tspan5731"
         x="362.39221"
         y="229.28989">true k</tspan></text>
    <text
       xml:space="preserve"
       style="font-size:8px;font-style:normal;font-variant:normal;font-weight:normal;font-stretch:normal;line-height:125%;letter-spacing:0px;word-spacing:0px;fill:#000000;fill-opacity:1;stroke:none;font-family:FreeSerif;-inkscape-font-specification:FreeSerif"
       x="382.54477"
       y="262.17035"
       id="text5733"
       sodipodi:linespacing="125%"><tspan
         sodipodi:role="line"
         id="tspan5735"
         x="382.54477"
         y="262.17035">uset i</tspan></text>
    <text
       xml:space="preserve"
       style="font-size:8px;font-style:normal;font-variant:normal;font-weight:normal;font-stretch:normal;line-height:125%;letter-spacing:0px;word-spacing:0px;fill:#000000;fill-opacity:1;stroke:none;font-family:FreeSerif;-inkscape-font-specification:FreeSerif"
       x="382.89832"
       y="298.23279"
       id="text5737"
       sodipodi:linespacing="125%"><tspan
         sodipodi:role="line"
         id="tspan5739"
         x="382.89832"
         y="298.23279">get k</tspan></text>
    <text
       xml:space="preserve"
       style="font-size:8px;font-style:normal;font-variant:normal;font-weight:normal;font-stretch:normal;line-height:125%;letter-spacing:0px;word-spacing:0px;fill:#000000;fill-opacity:1;stroke:none;font-family:FreeSerif;-inkscape-font-specification:FreeSerif"
       x="346.87573"
       y="337.35413"
       id="text5741"
       sodipodi:linespacing="125%"><tspan
         sodipodi:role="line"
         id="tspan5743"
         x="346.87573"
         y="337.35413">false k</tspan></text>
    <text
       xml:space="preserve"
       style="font-size:8px;font-style:normal;font-variant:normal;font-weight:normal;font-stretch:normal;line-height:125%;letter-spacing:0px;word-spacing:0px;fill:#000000;fill-opacity:1;stroke:none;font-family:FreeSerif;-inkscape-font-specification:FreeSerif"
       x="400.92953"
       y="327.22418"
       id="text5745"
       sodipodi:linespacing="125%"><tspan
         sodipodi:role="line"
         id="tspan5747"
         x="400.92953"
         y="327.22418">true k</tspan></text>
    <text
       xml:space="preserve"
       style="font-size:8px;font-style:normal;font-variant:normal;font-weight:normal;font-stretch:normal;line-height:125%;letter-spacing:0px;word-spacing:0px;fill:#000000;fill-opacity:1;stroke:none;font-family:FreeSerif;-inkscape-font-specification:FreeSerif"
       x="419.66788"
       y="380.61075"
       id="text5749"
       sodipodi:linespacing="125%"><tspan
         sodipodi:role="line"
         id="tspan5751"
         x="419.66788"
         y="380.61075">set i</tspan></text>
    <path
       style="fill:none;stroke:#000000;stroke-width:1px;stroke-linecap:butt;stroke-linejoin:miter;stroke-opacity:1"
       d="m 341.5,159.11219 15.25,0"
       id="path5753"
       inkscape:connector-curvature="0" />
    <path
       style="fill:none;stroke:#000000;stroke-width:1px;stroke-linecap:butt;stroke-linejoin:miter;stroke-opacity:1"
       d="m 402.68826,158.98091 17.63649,0"
       id="path5753-5"
       inkscape:connector-curvature="0"
       sodipodi:nodetypes="cc" />
    <path
       style="fill:none;stroke:#000000;stroke-width:1px;stroke-linecap:butt;stroke-linejoin:miter;stroke-opacity:1"
       d="m 361.875,222.36219 19.125,0"
       id="path5753-2"
       inkscape:connector-curvature="0"
       sodipodi:nodetypes="cc" />
    <path
       style="fill:none;stroke:#000000;stroke-width:1px;stroke-linecap:butt;stroke-linejoin:miter;stroke-opacity:1"
       d="m 306.41863,232.11219 19.625,0"
       id="path5753-1"
       inkscape:connector-curvature="0"
       sodipodi:nodetypes="cc" />
    <path
       style="fill:none;stroke:#000000;stroke-width:1px;stroke-linecap:butt;stroke-linejoin:miter;stroke-opacity:1"
       d="m 400.9375,320.86218 18.125,0"
       id="path5753-3"
       inkscape:connector-curvature="0"
       sodipodi:nodetypes="cc" />
    <path
       style="fill:none;stroke:#000000;stroke-width:1px;stroke-linecap:butt;stroke-linejoin:miter;stroke-opacity:1"
       d="m 347.25,330.67468 20.6875,0"
       id="path5753-0"
       inkscape:connector-curvature="0"
       sodipodi:nodetypes="cc" />
  </g>
</svg>
